<svg width="32" height="33" fill="none" xmlns="http://www.w3.org/2000/svg"><path d="m14.133 22.633 9.4-9.4-1.866-1.866-7.534 7.533-3.8-3.8-1.866 1.867 5.666 5.666Zm1.867 7.2c-1.844 0-3.578-.35-5.2-1.05a13.454 13.454 0 0 1-4.233-2.85c-1.2-1.2-2.15-2.61-2.85-4.233-.7-1.622-1.05-3.355-1.05-5.2 0-1.844.35-3.578 1.05-5.2.7-1.622 1.65-3.033 2.85-4.233 1.2-1.2 2.61-2.15 4.233-2.85 1.622-.7 3.356-1.05 5.2-1.05 1.844 0 3.578.35 5.2 1.05 1.622.7 3.033 1.65 4.233 2.85 1.2 1.2 2.15 2.61 2.85 4.233.7 1.622 1.05 3.356 1.05 5.2 0 1.845-.35 3.578-1.05 5.2a13.457 13.457 0 0 1-2.85 4.233c-1.2 1.2-2.61 2.15-4.233 2.85-1.622.7-3.356 1.05-5.2 1.05Z" fill="#47BA68"/></svg>