<svg xmlns="http://www.w3.org/2000/svg" width="157" height="28" fill="none"><path fill="url(#a)" d="M20.066 21.04v6.46H.838V.52h18.886v6.46H8.248v3.8h9.804v6.004H8.248v4.256h11.818Zm4.586 6.46V.52h10.374c2.99 0 5.485.608 7.486 1.824 2.027 1.19 3.547 2.812 4.56 4.864 1.039 2.027 1.558 4.281 1.558 6.764 0 2.736-.57 5.117-1.71 7.144-1.115 2.027-2.698 3.597-4.75 4.712-2.027 1.115-4.408 1.672-7.144 1.672H24.652Zm16.454-13.528c0-1.393-.24-2.61-.722-3.648-.481-1.064-1.178-1.887-2.09-2.47-.912-.583-2.001-.874-3.268-.874h-2.964v14.06h2.964c1.292 0 2.381-.304 3.268-.912.912-.608 1.609-1.444 2.09-2.508.481-1.09.722-2.305.722-3.648ZM56.796.52l4.825 11.02L66.561.52h8.056l-9.31 18.05v8.93h-7.372v-9.006L48.777.52h8.018Zm31.392 27.208c-2.052 0-3.914-.38-5.586-1.14a14.133 14.133 0 0 1-4.332-3.116 14.887 14.887 0 0 1-2.774-4.408 14.07 14.07 0 0 1-.95-5.092c0-1.799.342-3.509 1.026-5.13a14.138 14.138 0 0 1 2.85-4.332 13.56 13.56 0 0 1 4.37-3.04C84.489.735 86.338.368 88.34.368c2.052 0 3.914.393 5.586 1.178a12.923 12.923 0 0 1 4.294 3.116 14.169 14.169 0 0 1 2.736 4.446c.658 1.621.988 3.293.988 5.016 0 1.773-.342 3.47-1.026 5.092a13.714 13.714 0 0 1-2.85 4.37c-1.216 1.267-2.66 2.28-4.332 3.04-1.672.735-3.522 1.102-5.548 1.102Zm-6.118-13.68c0 .912.126 1.799.38 2.66a7.411 7.411 0 0 0 1.14 2.28 5.816 5.816 0 0 0 1.9 1.596c.785.38 1.71.57 2.774.57s1.988-.203 2.774-.608a5.186 5.186 0 0 0 1.9-1.634 7.23 7.23 0 0 0 1.102-2.318 9.244 9.244 0 0 0 0-5.244 6.942 6.942 0 0 0-1.14-2.242 5.178 5.178 0 0 0-1.938-1.596c-.786-.38-1.698-.57-2.736-.57-1.064 0-1.989.203-2.774.608-.76.405-1.394.95-1.9 1.634a6.888 6.888 0 0 0-1.14 2.28 9.776 9.776 0 0 0-.342 2.584ZM106.224 27.5V.52h10.374c2.99 0 5.485.608 7.486 1.824 2.027 1.19 3.547 2.812 4.56 4.864 1.039 2.027 1.558 4.281 1.558 6.764 0 2.736-.57 5.117-1.71 7.144-1.114 2.027-2.698 3.597-4.75 4.712-2.026 1.115-4.408 1.672-7.144 1.672h-10.374Zm16.454-13.528c0-1.393-.24-2.61-.722-3.648-.481-1.064-1.178-1.887-2.09-2.47-.912-.583-2.001-.874-3.268-.874h-2.964v14.06h2.964c1.292 0 2.382-.304 3.268-.912.912-.608 1.609-1.444 2.09-2.508.482-1.09.722-2.305.722-3.648ZM139.684.52h8.284l8.588 26.98h-7.524l-1.634-5.282h-7.182L138.62 27.5h-7.562L139.684.52Zm6.536 16.758-2.394-9.5-2.508 9.5h4.902Z"/><defs><linearGradient id="a" x1="1.886" x2="152.848" y1="-.25" y2="6.392" gradientUnits="userSpaceOnUse"><stop offset=".421" stop-color="#0096FF"/><stop offset=".967" stop-color="#0048FF"/></linearGradient></defs></svg>