<svg xmlns="http://www.w3.org/2000/svg" width="80" height="80" fill="none"><path fill="#fff" d="M40 6.101C21.308 6.101 6.102 21.309 6.102 40S21.308 73.898 40 73.898c18.692 0 33.898-15.206 33.898-33.898C73.898 21.308 58.692 6.102 40 6.102Zm0 61.021c-14.954 0-27.122-12.167-27.122-27.122S25.046 12.878 40 12.878c14.955 0 27.122 12.168 27.122 27.122 0 14.955-12.167 27.122-27.122 27.122Z"/><path fill="#fff" d="M43.334 39.021c.028-.173.054-.346.054-.527V23.717a3.389 3.389 0 0 0-6.776 0v14.778c0 .288-.037 3.568 1.028 4.522l10.484 9.4c.647.58 1.456.864 2.26.864a3.388 3.388 0 0 0 2.264-5.91l-9.314-8.35Z"/></svg>