<svg xmlns="http://www.w3.org/2000/svg" width="80" height="80" fill="none"><path fill="#fff" d="M72.866 9.43c-.828 0-1.732.076-2.636.076h-.075V6.268c0-1.129-.903-2.033-2.033-2.033-9.712 0-19.2 1.883-28.16 5.572a73.652 73.652 0 0 0-28.16-5.572c-1.129 0-2.033.829-2.033 2.033v3.314h-.075c-.903-.076-1.807-.151-2.71-.151-1.13 0-1.958.903-1.958 2.033V51.52c0 1.13.828 1.958 1.957 1.958 6.4 0 12.725.753 18.824 2.259-.527 1.58-.903 3.237-.903 4.969 0 8.282 6.776 15.059 15.058 15.059 8.283 0 15.06-6.776 15.06-15.06 0-1.73-.377-3.387-.904-4.969a79.01 79.01 0 0 1 18.823-2.259c1.13 0 2.033-.828 2.033-1.957V11.463c-.075-1.13-.978-2.033-2.108-2.033ZM13.76 8.227c8.283.226 16.414 1.957 24.245 5.12v32.527a14.88 14.88 0 0 0-7.153 3.011c-5.572-1.505-11.294-2.41-17.017-2.56V8.226h-.075Zm26.202 64c-6.324 0-11.445-5.12-11.445-11.445s5.12-11.52 11.445-11.52 11.445 5.12 11.445 11.445-5.12 11.52-11.445 11.52Zm26.203-25.901c-5.723.15-11.445 1.054-17.017 2.56-2.033-1.582-4.518-2.636-7.153-3.012V13.346c7.756-3.163 15.888-4.894 24.17-5.12v38.099Z"/><path fill="#fff" d="M19.181 18.165c4.217.451 8.433 1.28 12.575 2.56.15.074.376.074.602.074.903 0 1.656-.602 1.882-1.43.301-1.054-.3-2.183-1.355-2.485a81.205 81.205 0 0 0-13.251-2.71c-1.054-.076-2.033.677-2.184 1.731-.075.527.076 1.054.452 1.43.3.528.752.83 1.28.83ZM19.181 25.77c4.217.451 8.433 1.28 12.574 2.56.151.075.377.075.528.075.903 0 1.656-.603 1.882-1.431.301-1.054-.3-2.183-1.355-2.485-4.292-1.28-8.81-2.183-13.252-2.71-1.129-.076-2.033.677-2.183 1.731-.075.527.075 1.054.452 1.43.375.529.827.83 1.354.83ZM19.181 33.374c4.217.452 8.433 1.28 12.575 2.56.15.075.376.075.602.075.903 0 1.656-.602 1.882-1.43.301-1.055-.3-2.184-1.355-2.485-4.292-1.28-8.81-2.184-13.251-2.71-1.054-.076-2.033.677-2.184 1.73-.075.528.076 1.055.452 1.431.3.528.752.754 1.28.83ZM31.755 43.539c.151.075.377.075.528.075.903 0 1.656-.602 1.882-1.43.301-1.055-.3-2.184-1.355-2.485-4.292-1.28-8.81-2.184-13.252-2.711-1.129-.15-2.108.677-2.183 1.732-.075.527.075 1.054.452 1.43.3.452.828.678 1.355.753 4.216.528 8.432 1.356 12.573 2.636ZM47.642 20.8c.226 0 .377 0 .603-.075 4.065-1.205 8.358-2.108 12.574-2.56a2.062 2.062 0 0 0 1.355-.753c.3-.452.452-.903.452-1.43-.075-1.055-.98-1.808-2.033-1.808h-.151a67.882 67.882 0 0 0-13.252 2.71c-.527.151-.903.528-1.205.98a2.07 2.07 0 0 0-.15 1.505c.15.904.904 1.431 1.807 1.431ZM47.642 28.405c.226 0 .377 0 .603-.075 4.066-1.205 8.358-2.108 12.574-2.56.527-.075.979-.301 1.355-.753.301-.452.452-.904.452-1.431-.151-1.054-1.13-1.882-2.183-1.732-4.443.452-8.96 1.355-13.252 2.71-.528.152-.904.528-1.205.98-.226.452-.3.979-.15 1.506.15.752.903 1.355 1.806 1.355ZM47.642 36.01c.226 0 .377 0 .603-.076 4.066-1.205 8.283-2.108 12.574-2.56a2.062 2.062 0 0 0 1.355-.753c.301-.452.452-.903.452-1.43-.151-1.055-1.13-1.883-2.183-1.808-4.443.452-8.96 1.355-13.252 2.71-.528.151-.904.528-1.205.98-.226.452-.3.979-.15 1.505.15.829.903 1.431 1.806 1.431ZM47.642 43.614c.226 0 .377 0 .603-.075 4.066-1.205 8.358-2.108 12.574-2.56.527-.075.979-.301 1.355-.753.301-.377.452-.904.452-1.431-.151-1.054-1.13-1.882-2.183-1.732-4.443.452-8.96 1.355-13.252 2.711-.528.15-.904.527-1.205.979-.226.452-.3.979-.15 1.506.15.752.903 1.355 1.806 1.355ZM38.306 54.758c-.979-.678-2.259.075-2.259 1.205v9.411c0 1.13 1.28 1.883 2.26 1.205l7.077-4.743c.903-.603.903-1.883 0-2.41l-7.078-4.668Z"/></svg>