<svg width="80" height="80" viewBox="0 0 80 80" fill="none" xmlns="http://www.w3.org/2000/svg">
<path d="M26.5312 6.39018C25.9399 5.81823 25.1473 5.50205 24.3249 5.5094C23.5024 5.51676 22.715 5.84659 22.1337 6.42799C21.5517 7.00992 21.2219 7.79673 21.2151 8.61918C21.2077 9.44166 21.5239 10.2342 22.0953 10.8261L32.4262 21.157H14.9015C12.4058 21.157 10.0118 22.1486 8.24659 23.9138C6.48134 25.6785 5.48975 28.0725 5.48975 30.5688V65.079C5.48975 67.5753 6.48134 69.9687 8.24659 71.7339C10.0118 73.4986 12.4058 74.4908 14.9015 74.4908H65.0985C67.5942 74.4908 69.9882 73.4987 71.7534 71.7339C73.5181 69.9687 74.5102 67.5753 74.5102 65.079V30.5688C74.5102 28.0725 73.5181 25.6785 71.7534 23.9138C69.9882 22.1486 67.5942 21.157 65.0985 21.157H47.5738L57.9047 10.8261C58.4761 10.2342 58.7923 9.44164 58.7855 8.61918C58.7781 7.7967 58.4477 7.00991 57.8663 6.42799C57.2844 5.84659 56.4976 5.51676 55.6751 5.5094C54.8527 5.50205 54.0601 5.81823 53.4688 6.39018L40.0005 19.8584L26.5312 6.39018ZM11.7642 30.569C11.7642 29.7371 12.0945 28.9388 12.6833 28.3505C13.2715 27.7623 14.0694 27.4319 14.9012 27.4319H65.0982C65.9301 27.4319 66.7279 27.7623 67.3162 28.3505C67.9044 28.9388 68.2353 29.737 68.2353 30.569V65.0793C68.2353 65.9112 67.9044 66.709 67.3162 67.2972C66.7279 67.886 65.9301 68.2163 65.0982 68.2163H14.9012C14.0693 68.2163 13.2715 67.886 12.6833 67.2972C12.0945 66.709 11.7642 65.9111 11.7642 65.0793V30.569Z" fill="white"/>
<path d="M22.5975 57.542C21.0618 57.542 19.9144 57.1193 19.1551 56.2738C18.3959 55.411 18.0163 54.1342 18.0163 52.4432V40.7703C18.0163 40.1146 18.1802 39.6228 18.5081 39.295C18.8532 38.9499 19.3449 38.7773 19.9834 38.7773C20.6045 38.7773 21.0791 38.9499 21.4069 39.295C21.752 39.6228 21.9245 40.1146 21.9245 40.7703V52.2879C21.9245 52.9954 22.0712 53.5216 22.3645 53.8667C22.6751 54.1946 23.0806 54.3585 23.581 54.3585C23.7191 54.3585 23.8485 54.3499 23.9693 54.3326C24.09 54.3154 24.2195 54.3067 24.3575 54.3067C24.6336 54.2722 24.8234 54.3585 24.9269 54.5656C25.0477 54.7554 25.1081 55.1436 25.1081 55.7303C25.1081 56.2479 25.0045 56.6448 24.7975 56.9209C24.5904 57.1797 24.2712 57.3522 23.8398 57.4385C23.6673 57.4558 23.4689 57.473 23.2445 57.4903C23.0202 57.5248 22.8045 57.542 22.5975 57.542ZM29.3789 57.4644C28.7404 57.4644 28.2487 57.2832 27.9036 56.9209C27.5757 56.5412 27.4118 56.015 27.4118 55.342V46.4903C27.4118 45.8001 27.5757 45.2738 27.9036 44.9114C28.2487 44.5318 28.7404 44.342 29.3789 44.342C30 44.342 30.4746 44.5318 30.8024 44.9114C31.1475 45.2738 31.32 45.8001 31.32 46.4903V55.342C31.32 56.015 31.1561 56.5412 30.8283 56.9209C30.5004 57.2832 30.0173 57.4644 29.3789 57.4644ZM29.3789 42.2197C28.6542 42.2197 28.0934 42.0558 27.6965 41.7279C27.3169 41.3828 27.1271 40.8997 27.1271 40.2785C27.1271 39.6401 27.3169 39.1569 27.6965 38.8291C28.0934 38.484 28.6542 38.3114 29.3789 38.3114C30.1036 38.3114 30.6557 38.484 31.0353 38.8291C31.4149 39.1569 31.6048 39.6401 31.6048 40.2785C31.6048 40.8997 31.4149 41.3828 31.0353 41.7279C30.6557 42.0558 30.1036 42.2197 29.3789 42.2197ZM40.4974 57.4903C39.997 57.4903 39.557 57.3609 39.1774 57.102C38.7978 56.826 38.4958 56.4205 38.2715 55.8856L34.3632 46.8785C34.1734 46.4299 34.1044 46.0158 34.1562 45.6361C34.2079 45.2393 34.3891 44.9287 34.6997 44.7044C35.0276 44.4628 35.4762 44.342 36.0456 44.342C36.5115 44.342 36.8911 44.4542 37.1844 44.6785C37.4778 44.8856 37.7366 45.291 37.9609 45.895L41.015 53.6597H40.1868L43.3703 45.8691C43.6119 45.2824 43.8793 44.8856 44.1727 44.6785C44.466 44.4542 44.8715 44.342 45.3891 44.342C45.8378 44.342 46.1915 44.4628 46.4503 44.7044C46.7264 44.9287 46.8903 45.2307 46.9421 45.6103C47.0111 45.9899 46.9421 46.404 46.735 46.8526L42.7491 55.8856C42.5248 56.4377 42.2229 56.8432 41.8432 57.102C41.4809 57.3609 41.0323 57.4903 40.4974 57.4903ZM56.0128 57.542C54.5116 57.542 53.2175 57.2746 52.1305 56.7397C51.0607 56.1875 50.2324 55.4197 49.6458 54.4361C49.0764 53.4354 48.7916 52.262 48.7916 50.9161C48.7916 49.6048 49.0677 48.4573 49.6199 47.4738C50.172 46.473 50.9399 45.6965 51.9234 45.1444C52.9242 44.575 54.0544 44.2903 55.314 44.2903C56.2285 44.2903 57.0567 44.4456 57.7987 44.7561C58.5407 45.0495 59.1791 45.4809 59.714 46.0503C60.2489 46.6024 60.6544 47.284 60.9305 48.095C61.2065 48.8887 61.3446 49.7773 61.3446 50.7609C61.3446 51.0887 61.2411 51.3389 61.034 51.5114C60.8269 51.6667 60.525 51.7444 60.1281 51.7444H52.0011V49.7256H58.5234L58.1093 50.0879C58.1093 49.3805 58.0058 48.7938 57.7987 48.3279C57.5916 47.8448 57.2897 47.4824 56.8928 47.2409C56.5132 46.9993 56.0387 46.8785 55.4693 46.8785C54.8309 46.8785 54.2873 47.0252 53.8387 47.3185C53.3901 47.6118 53.045 48.0346 52.8034 48.5867C52.5618 49.1389 52.4411 49.8032 52.4411 50.5797V50.7867C52.4411 52.0981 52.743 53.0644 53.3469 53.6856C53.9681 54.3067 54.8826 54.6173 56.0905 54.6173C56.5046 54.6173 56.9791 54.5656 57.514 54.462C58.0489 54.3585 58.5493 54.1946 59.0152 53.9703C59.412 53.7805 59.7658 53.7201 60.0764 53.7891C60.3869 53.8409 60.6285 53.9789 60.8011 54.2032C60.9736 54.4275 61.0685 54.6863 61.0858 54.9797C61.1203 55.273 61.0599 55.5663 60.9046 55.8597C60.7493 56.1358 60.4905 56.3687 60.1281 56.5585C59.5415 56.8863 58.8771 57.1279 58.1352 57.2832C57.4105 57.4558 56.703 57.542 56.0128 57.542Z" fill="white"/>
</svg>
