<svg xmlns="http://www.w3.org/2000/svg" width="80" height="80" fill="none"><path fill="#fff" d="M63.276 30.66v7.152c0 .255-.1.51-.266.709-3.676 4.362-14.295 5.913-23.009 5.913-8.725 0-19.344-1.55-23.03-5.913a1.11 1.11 0 0 1-.255-.709V30.66l21.613 4.672c.51.133 1.052.188 1.672.188.598 0 1.163-.055 1.628-.177l21.647-4.684Z"/><path fill="#fff" d="M76.44 23.473c0 1.24-.82 2.248-2.026 2.514l-3.765.819V39.03c1.684.643 2.89 2.735 2.902 5.282l-.266-.266a3.34 3.34 0 0 0-2.226-.864c-.155 0-.31.012-.443.034l-5.071.664c.144-2.347 1.306-4.252 2.89-4.85V27.282l-27.273 5.902a5.116 5.116 0 0 1-1.163.122c-.399 0-.786-.034-1.152-.122L5.574 25.986c-1.206-.265-2.015-1.273-2.015-2.513 0-1.229.809-2.237 2.015-2.502l33.274-7.209a5.622 5.622 0 0 1 2.314 0l33.25 7.209c1.208.266 2.027 1.273 2.027 2.502h.001ZM42.35 59.727l.175.02V49.14l-2.536.332-2.525-.331v10.607l.181-.02-2.306 5.064a1.108 1.108 0 0 0 2.016.918l2.642-5.803 2.643 5.803a1.108 1.108 0 0 0 2.015-.918l-2.306-5.064ZM35.25 48.853 9.096 45.409a1.09 1.09 0 0 0-.886.277c-1.926 1.727-2.535 6.433-2.292 10.32.122 2.004.61 5.547 2.403 6.787.188.133.41.199.631.199.045 0 .09 0 .122-.011l26.176-2.979v-11.15ZM72.643 46.76a4.614 4.614 0 0 0-.852-1.075 1.09 1.09 0 0 0-.886-.277L44.74 48.852v11.15l26.188 2.979c.266.033.531-.033.753-.188 3.178-2.215 2.99-12.48.963-16.034Z"/></svg>