<svg xmlns="http://www.w3.org/2000/svg" width="80" height="80" fill="none"><path fill="#fff" d="M40 6.101C21.308 6.101 6.102 21.309 6.102 40S21.308 73.898 40 73.898c18.692 0 33.898-15.206 33.898-33.898C73.898 21.308 58.692 6.102 40 6.102Zm0 61.021c-14.954 0-27.122-12.167-27.122-27.122S25.046 12.878 40 12.878c14.955 0 27.122 12.168 27.122 27.122 0 14.955-12.167 27.122-27.122 27.122Z"/><path fill="#fff" d="M18.475 47.73c-.438 0-.805-.1-1.101-.297a1.327 1.327 0 0 1-.55-.847c-.071-.367-.008-.777.19-1.229l5.273-11.35c.254-.55.565-.953.931-1.207a2.276 2.276 0 0 1 1.292-.381c.48 0 .897.127 1.25.38.367.255.684.657.953 1.208l5.273 11.35c.226.452.303.861.232 1.229-.056.367-.232.649-.529.847-.282.197-.635.296-1.059.296-.564 0-1.002-.127-1.313-.381-.296-.254-.564-.664-.804-1.228l-1.144-2.69 1.483 1.08h-8.725l1.503-1.08-1.143 2.69c-.254.564-.515.974-.784 1.228-.268.254-.677.381-1.228.381Zm5.993-11.055-2.456 5.866-.593-1.017h6.162l-.593 1.017-2.478-5.866h-.042Zm12.128 10.864c-.664 0-1.172-.17-1.525-.509-.339-.353-.508-.854-.508-1.503V34.62c0-.65.17-1.144.508-1.483.353-.352.861-.529 1.525-.529h4.15c2.598 0 4.603.65 6.014 1.948 1.426 1.3 2.14 3.134 2.14 5.506 0 1.186-.184 2.245-.551 3.177a6.477 6.477 0 0 1-1.589 2.35c-.691.636-1.546 1.123-2.562 1.461-1.002.325-2.153.487-3.452.487h-4.15Zm1.863-3.156h2.033c.748 0 1.39-.092 1.927-.275.55-.184 1.003-.452 1.355-.805.367-.353.636-.797.805-1.334.184-.536.275-1.172.275-1.906 0-1.468-.36-2.548-1.08-3.24-.72-.706-1.814-1.059-3.282-1.059H38.46v8.62Zm18.935 3.389c-.565 0-1.158-.043-1.78-.128a11.123 11.123 0 0 1-1.736-.338 9.044 9.044 0 0 1-1.482-.551c-.381-.184-.65-.424-.805-.72a1.67 1.67 0 0 1-.169-.974c.042-.339.162-.635.36-.89.198-.268.459-.444.784-.529.324-.099.691-.056 1.1.127a8.104 8.104 0 0 0 1.822.593 9.368 9.368 0 0 0 1.906.212c.931 0 1.58-.12 1.948-.36.381-.254.572-.565.572-.932a.927.927 0 0 0-.403-.783c-.254-.198-.713-.367-1.376-.509l-2.478-.53c-1.355-.282-2.364-.776-3.028-1.482-.663-.705-.995-1.616-.995-2.731 0-.734.148-1.398.444-1.99a4.538 4.538 0 0 1 1.292-1.547 6.232 6.232 0 0 1 1.99-.974c.777-.24 1.638-.36 2.584-.36.734 0 1.476.085 2.224.254.762.156 1.419.396 1.97.72.324.17.557.403.698.7.141.296.198.606.17.93-.029.312-.142.587-.34.827-.183.24-.437.402-.762.487-.31.07-.684.014-1.122-.17a5.601 5.601 0 0 0-1.398-.402 7.76 7.76 0 0 0-1.482-.148c-.522 0-.967.063-1.334.19-.367.113-.65.283-.847.509a1.207 1.207 0 0 0-.275.783c0 .297.12.55.36.763.254.197.712.367 1.376.508l2.456.53c1.37.296 2.393.783 3.071 1.46.678.678 1.016 1.56 1.016 2.647 0 .735-.148 1.398-.444 1.991a4.38 4.38 0 0 1-1.27 1.525c-.551.41-1.215.727-1.991.953-.777.225-1.652.339-2.626.339Z"/><rect width="4.706" height="65.882" x="60.654" y="14.068" fill="#fff" rx="2.353" transform="rotate(45 60.654 14.068)"/></svg>